<svg xmlns="http://www.w3.org/2000/svg" viewBox="0 0 24 24"><defs><style>.cls-1{fill:#64b32f;}.cls-2{isolation:isolate;}.cls-3{fill:#fff;}</style></defs><title>Ativo 3</title><g id="Camada_2" data-name="Camada 2"><g id="Camada_1-2" data-name="Camada 1"><circle class="cls-1" cx="12" cy="12" r="12"/><g class="cls-2"><path class="cls-3" d="M7,18.69V5.31h4.68a6.18,6.18,0,0,1,3.7.93A3.19,3.19,0,0,1,16.67,9a3,3,0,0,1-.51,1.73,2.91,2.91,0,0,1-1.4,1.1,2.77,2.77,0,0,1,1.62,1A3,3,0,0,1,17,14.76a3.52,3.52,0,0,1-1.23,2.92,5.54,5.54,0,0,1-3.51,1Zm2.75-7.77h2.05c1.39,0,2.08-.58,2.08-1.67a1.52,1.52,0,0,0-.53-1.31,2.76,2.76,0,0,0-1.67-.4H9.78Zm0,1.94v3.62h2.37A2.28,2.28,0,0,0,13.67,16a1.6,1.6,0,0,0,.55-1.28,1.69,1.69,0,0,0-1.91-1.87Z"/></g></g></g></svg>