<svg xmlns="http://www.w3.org/2000/svg" xmlns:xlink="http://www.w3.org/1999/xlink" viewBox="0 0 24 24"><defs><style>.cls-1{fill:url(#Gradiente_sem_nome_4);}.cls-2{isolation:isolate;}.cls-3{fill:#fff;}</style><linearGradient id="Gradiente_sem_nome_4" x1="-466.56" y1="430.44" x2="-466.56" y2="429.44" gradientTransform="matrix(24, 0, 0, -24, 11209.52, 10330.52)" gradientUnits="userSpaceOnUse"><stop offset="0" stop-color="#25e9d6"/><stop offset="1" stop-color="#96dbd6"/></linearGradient></defs><title>Ativo 4</title><g id="Camada_2" data-name="Camada 2"><g id="Camada_1-2" data-name="Camada 1"><circle id="Elipse_47" data-name="Elipse 47" class="cls-1" cx="12" cy="12" r="12"/><g class="cls-2"><path class="cls-3" d="M16.32,14.45a3.74,3.74,0,0,1-1.27,2.71,4.45,4.45,0,0,1-3,1,4,4,0,0,1-3.22-1.38A5.64,5.64,0,0,1,7.63,13v-.66a6.46,6.46,0,0,1,.54-2.71A4,4,0,0,1,9.72,7.82a4.31,4.31,0,0,1,2.34-.63,4.33,4.33,0,0,1,3,1A4,4,0,0,1,16.34,11h-2.2a2.2,2.2,0,0,0-.57-1.49A2.15,2.15,0,0,0,12.06,9a1.85,1.85,0,0,0-1.64.79,4.35,4.35,0,0,0-.56,2.44V13a4.69,4.69,0,0,0,.52,2.52,1.82,1.82,0,0,0,1.65.8,2.16,2.16,0,0,0,1.52-.46,2.08,2.08,0,0,0,.58-1.44Z"/></g></g></g></svg>